<svg width="629" height="629" viewBox="0 0 629 629" fill="none" xmlns="http://www.w3.org/2000/svg">
<circle cx="314.5" cy="314.5" r="311.5" fill="#131827"/>
<path d="M239.6 98C238.6 101.8 237.6 106 236.6 110.6C235.8 115 235 119.1 234.2 122.9C233.4 127.3 232.4 132.3 231.2 137.9C230 143.3 228.8 148.8 227.6 154.4C226.6 159.8 225.5 165.1 224.3 170.3C222.3 178.9 219.8 188.9 216.8 200.3C213.8 211.7 210.3 224 206.3 237.2C202.3 250.2 197.8 263.3 192.8 276.5C187.8 289.7 182.5 302.6 176.9 315.2C171.3 327.6 165.3 338.8 158.9 348.8L119.9 333.2C126.9 323.8 133.4 313.3 139.4 301.7C145.6 289.9 151.2 277.8 156.2 265.4C161.2 253 165.6 240.8 169.4 228.8C173.4 216.8 176.8 205.6 179.6 195.2C182.4 184.8 184.6 175.9 186.2 168.5C189 154.9 191.2 141.8 192.8 129.2C194.4 116.6 195.1 104.7 194.9 93.5L239.6 98ZM342.8 126.2C347.6 132.6 352.5 140.7 357.5 150.5C362.7 160.1 367.7 170.3 372.5 181.1C377.5 191.9 382 202.3 386 212.3C390.2 222.3 393.4 230.8 395.6 237.8L357.5 255.5C355.5 247.1 352.7 237.8 349.1 227.6C345.7 217.2 341.7 206.7 337.1 196.1C332.7 185.3 327.9 175.1 322.7 165.5C317.7 155.9 312.5 147.9 307.1 141.5L342.8 126.2ZM117.8 159.5C123.2 159.9 128.5 160.1 133.7 160.1C138.9 159.9 144.3 159.7 149.9 159.5C154.7 159.3 160.6 159 167.6 158.6C174.8 158 182.3 157.4 190.1 156.8C198.1 156.2 206.1 155.6 214.1 155C222.1 154.2 229.5 153.6 236.3 153.2C243.1 152.8 248.7 152.6 253.1 152.6C263.7 152.6 273 154.4 281 158C289.2 161.4 295.6 167.3 300.2 175.7C305 184.1 307.4 195.5 307.4 209.9C307.4 221.7 306.8 234.5 305.6 248.3C304.6 262.1 302.9 275.3 300.5 287.9C298.1 300.5 294.7 311.2 290.3 320C285.5 330.4 278.9 337.6 270.5 341.6C262.3 345.6 252.5 347.6 241.1 347.6C235.3 347.6 229.1 347.1 222.5 346.1C216.1 345.3 210.3 344.4 205.1 343.4L198.5 303.8C202.5 304.8 206.8 305.8 211.4 306.8C216.2 307.8 220.7 308.6 224.9 309.2C229.3 309.8 232.8 310.1 235.4 310.1C240.4 310.1 244.8 309.2 248.6 307.4C252.4 305.4 255.5 302 257.9 297.2C260.7 291.4 262.9 283.9 264.5 274.7C266.3 265.5 267.6 255.6 268.4 245C269.4 234.2 269.9 223.9 269.9 214.1C269.9 206.1 268.8 200.2 266.6 196.4C264.4 192.6 261.1 190.1 256.7 188.9C252.5 187.5 247.2 186.8 240.8 186.8C236.4 186.8 230.2 187.2 222.2 188C214.4 188.6 206.1 189.4 197.3 190.4C188.5 191.2 180.2 192.1 172.4 193.1C164.8 194.1 158.9 194.8 154.7 195.2C150.5 196 145 196.9 138.2 197.9C131.6 198.7 126 199.5 121.4 200.3L117.8 159.5Z" fill="#6AFFED"/>
<path d="M407.4 345.8C407.4 340.8 407.1 334.9 406.5 328.1C405.9 321.1 404.9 315.3 403.5 310.7H451.2C450.4 315.3 449.8 321.2 449.4 328.4C449 335.4 448.8 341.3 448.8 346.1C448.8 351.7 448.8 357.8 448.8 364.4C448.8 371 448.8 377.8 448.8 384.8C448.8 391.8 448.8 398.6 448.8 405.2C448.8 421.6 447.5 437.2 444.9 452C442.3 466.6 437.8 480.6 431.4 494C425.2 507.4 416.5 520 405.3 531.8C394.3 543.6 380.2 554.6 363 564.8L325.8 537.2C341.6 530 354.7 521.7 365.1 512.3C375.7 502.9 384.1 492.6 390.3 481.4C396.5 470.2 400.9 458.2 403.5 445.4C406.1 432.6 407.4 419.2 407.4 405.2C407.4 398.6 407.4 391.8 407.4 384.8C407.4 377.6 407.4 370.7 407.4 364.1C407.4 357.3 407.4 351.2 407.4 345.8ZM296.1 376.7C300.7 377.1 305.9 377.6 311.7 378.2C317.5 378.6 323.4 378.8 329.4 378.8C332 378.8 336.9 378.8 344.1 378.8C351.5 378.8 360.4 378.8 370.8 378.8C381.2 378.8 392.4 378.8 404.4 378.8C416.4 378.8 428.4 378.8 440.4 378.8C452.6 378.8 463.9 378.8 474.3 378.8C484.7 378.8 493.6 378.8 501 378.8C508.4 378.8 513.5 378.8 516.3 378.8C523.3 378.8 529.7 378.6 535.5 378.2C541.5 377.8 546 377.4 549 377V417.8C546 417.6 541.2 417.4 534.6 417.2C528.2 416.8 522 416.6 516 416.6C513.2 416.6 508.1 416.6 500.7 416.6C493.5 416.6 484.6 416.6 474 416.6C463.6 416.6 452.4 416.6 440.4 416.6C428.6 416.6 416.7 416.6 404.7 416.6C392.7 416.6 381.5 416.6 371.1 416.6C360.7 416.6 351.9 416.6 344.7 416.6C337.5 416.6 332.8 416.6 330.6 416.6C324 416.6 317.8 416.8 312 417.2C306.2 417.4 300.9 417.7 296.1 418.1V376.7Z" fill="#6AFFED"/>
</svg>
